<svg version="1.1" xmlns="http://www.w3.org/2000/svg" xmlns:xlink="http://www.w3.org/1999/xlink" viewBox="0 0 172 172"><g fill="none" fill-rule="nonzero" stroke="none" stroke-width="1" stroke-linecap="butt" stroke-linejoin="miter" stroke-miterlimit="10" stroke-dasharray="" stroke-dashoffset="0" font-family="none" font-weight="none" font-size="none" text-anchor="none" style="mix-blend-mode: normal"><path d="M0,172v-172h172v172z" fill="none"></path><g fill="#ffffff"><path d="M59.125,137.0625c-2.6875,-2.6875 -10.75,-2.6875 -10.75,-2.6875l-1.14219,-3.42388c-0.97288,-2.91862 -3.26531,-5.21106 -6.18394,-6.18394l-3.42387,-1.14219c0,0 1.34375,-6.71875 -2.6875,-10.75l67.1875,-67.1875l21.5,26.875zM139.75,56.4375l-24.1875,-24.1875l12.5775,-12.5775c0,0 9.40625,-4.03125 18.8125,5.375c9.40625,9.40625 5.375,18.8125 5.375,18.8125zM24.1875,134.375l-4.95306,12.02925c-1.65012,4.00438 2.35694,8.01144 6.36131,6.36131l12.02925,-4.95306z"></path></g></g></svg>