<svg version="1.1" xmlns="http://www.w3.org/2000/svg" xmlns:xlink="http://www.w3.org/1999/xlink" viewBox="0 0 172 172"><g fill="none" fill-rule="nonzero" stroke="none" stroke-width="1" stroke-linecap="butt" stroke-linejoin="miter" stroke-miterlimit="10" stroke-dasharray="" stroke-dashoffset="0" font-family="none" font-weight="none" font-size="none" text-anchor="none" style="mix-blend-mode: normal"><path d="M0,172v-172h172v172z" fill="none"></path><g fill="#ffffff"><path d="M74.53333,17.2c-1.53406,-0.02082 -3.01249,0.574 -4.10468,1.65146c-1.09219,1.07746 -1.70703,2.54767 -1.70704,4.08187h-34.32161c-2.06765,-0.02924 -3.99087,1.05709 -5.03322,2.843c-1.04236,1.78592 -1.04236,3.99474 0,5.78066c1.04236,1.78592 2.96558,2.87225 5.03322,2.843h103.2c2.06765,0.02924 3.99087,-1.05709 5.03322,-2.843c1.04236,-1.78592 1.04236,-3.99474 0,-5.78066c-1.04236,-1.78592 -2.96558,-2.87225 -5.03322,-2.843h-34.32161c-0.00001,-1.53421 -0.61486,-3.00442 -1.70704,-4.08187c-1.09219,-1.07746 -2.57061,-1.67228 -4.10468,-1.65146zM34.4,45.86667v91.73333c0,6.33533 5.13133,11.46667 11.46667,11.46667h80.26667c6.33533,0 11.46667,-5.13133 11.46667,-11.46667v-91.73333zM68.8,74.53333c1.4663,0 2.93278,0.55882 4.05364,1.67969l13.14636,13.14636l13.14636,-13.14636c2.24173,-2.24173 5.86556,-2.24173 8.10729,0c2.24173,2.24173 2.24173,5.86556 0,8.10729l-13.14636,13.14636l13.14636,13.14636c2.24173,2.24173 2.24173,5.86556 0,8.10729c-1.118,1.118 -2.58591,1.67969 -4.05364,1.67969c-1.46773,0 -2.93564,-0.56169 -4.05364,-1.67969l-13.14636,-13.14636l-13.14636,13.14636c-1.118,1.118 -2.58591,1.67969 -4.05364,1.67969c-1.46773,0 -2.93564,-0.56169 -4.05364,-1.67969c-2.24173,-2.24173 -2.24173,-5.86556 0,-8.10729l13.14636,-13.14636l-13.14636,-13.14636c-2.24173,-2.24173 -2.24173,-5.86556 0,-8.10729c1.12087,-1.12087 2.58734,-1.67969 4.05364,-1.67969z"></path></g></g></svg>