<svg version="1.1" xmlns="http://www.w3.org/2000/svg" xmlns:xlink="http://www.w3.org/1999/xlink" viewBox="0 0 172 172"><g fill="none" fill-rule="nonzero" stroke="none" stroke-width="1" stroke-linecap="butt" stroke-linejoin="miter" stroke-miterlimit="10" stroke-dasharray="" stroke-dashoffset="0" font-family="none" font-weight="none" font-size="none" text-anchor="none" style="mix-blend-mode: normal"><path d="M0,172v-172h172v172z" fill="none"></path><g fill="#ffffff"><path d="M20.64,6.88v158.24h91.44219c-2.795,-2.02906 -5.65719,-4.31344 -8.37156,-6.88h-76.19063v-144.48h116.96v86.52406c1.69313,-0.30906 3.41313,-0.52406 5.16,-0.52406c0.57781,0 1.15563,0.05375 1.72,0.09406v-92.97406zM44.72,48.16v6.88h13.76v-6.88zM68.8,48.16v6.88h58.48v-6.88zM44.72,68.8v6.88h13.76v-6.88zM68.8,68.8v6.88h58.48v-6.88zM44.72,89.44v6.88h13.76v-6.88zM68.8,89.44v6.88h58.48v-6.88zM118.68,106.64c-12.38937,0 -22.36,9.82281 -22.36,21.67469c0,18.62438 17.2,29.80438 28.20531,36.91281c3.09062,2.02906 5.50937,3.38625 7.22937,5.09281l2.06938,1.67969l2.05594,-1.69312c1.72,-1.35719 4.47469,-3.05031 7.21594,-5.07938c11.70406,-7.44437 28.90406,-18.28844 28.90406,-36.91281c0,-11.85187 -9.97062,-21.67469 -22.36,-21.67469c-5.84531,0 -11.35469,2.365 -15.48,6.08719c-4.12531,-3.72219 -9.63469,-6.08719 -15.48,-6.08719zM44.72,110.08v6.88h13.76v-6.88zM68.8,110.08v6.88h23.05875c1.11531,-2.49937 2.58,-4.81062 4.34031,-6.88zM118.68,113.4125c5.16,0 9.63469,2.4725 12.72531,6.88l2.75469,3.5475l2.75469,-3.5475c2.75469,-4.05812 7.56531,-6.88 12.72531,-6.88c8.6,0 15.48,6.7725 15.48,14.90219c0,14.90219 -14.44531,24.37563 -25.11469,31.16156c-2.40531,1.34375 -4.12531,2.70094 -5.84531,3.72219c-1.72,-1.35719 -3.44,-2.37844 -5.84531,-3.72219c-10.66937,-6.78594 -25.11469,-16.25937 -25.11469,-31.16156c0,-8.12969 6.88,-14.90219 15.48,-14.90219z"></path></g></g></svg>